<?xml version="1.0" encoding="utf-8"?>
<!-- Uploaded to: SVG Repo, www.svgrepo.com, Generator: SVG Repo Mixer Tools -->
<svg width="800px" height="800px" viewBox="-1 0 20 20" xmlns="http://www.w3.org/2000/svg">
  <g id="cyclone" transform="translate(-3 -2)">
    <path id="secondary" fill="#2ca9bc" d="M4,3a17.32,17.32,0,0,1,3,9c0,6.08,6,9,6,9a10.65,10.65,0,0,1,3.37-9A12.42,12.42,0,0,0,20,3Z"/>
    <path id="primary" d="M20,3a12.42,12.42,0,0,1-3.63,9A10.65,10.65,0,0,0,13,21s-6-2.92-6-9A17.32,17.32,0,0,0,4,3Zm-5,8h4M4,7h8m-2,7H5" fill="none" stroke="#000000" stroke-linecap="round" stroke-linejoin="round" stroke-width="2"/>
  </g>
</svg>